<svg width="45" height="45" viewBox="0 0 45 45" fill="none" xmlns="http://www.w3.org/2000/svg">
<rect width="45" height="45" rx="10" fill="#FE7A6B"/>
<path d="M31.4354 13.582C30.9352 13.0686 30.1949 12.8773 29.5046 13.0787L13.408 17.7595C12.6797 17.9619 12.1635 18.5427 12.0244 19.2806C11.8824 20.0315 12.3786 20.9848 13.0268 21.3834L18.0599 24.4768C18.5761 24.7939 19.2424 24.7144 19.6696 24.2835L25.4329 18.4843C25.723 18.1823 26.2032 18.1823 26.4934 18.4843C26.7835 18.7762 26.7835 19.2493 26.4934 19.5513L20.72 25.3516C20.2918 25.7814 20.2118 26.4508 20.5269 26.9702L23.6022 32.0538C23.9623 32.6577 24.5826 33 25.2628 33C25.3429 33 25.4329 33 25.513 32.9899C26.2933 32.8893 26.9135 32.3558 27.1436 31.6008L31.9156 15.5248C32.1257 14.8403 31.9356 14.0954 31.4354 13.582Z" fill="#F5F5FC"/>
</svg>
