<svg width="45" height="45" viewBox="0 0 45 45" fill="none" xmlns="http://www.w3.org/2000/svg">
<rect width="45" height="45" rx="10" fill="#FE7A6B"/>
<path fill-rule="evenodd" clip-rule="evenodd" d="M20.8953 22.23C20.4578 22.23 20.1119 22.57 20.1119 23C20.1119 23.42 20.4578 23.77 20.8953 23.77H27V28.55C27 31 24.9753 33 22.4724 33H17.5174C15.0247 33 13 31.01 13 28.56V17.45C13 14.99 15.0349 13 17.5276 13H22.4927C24.9753 13 27 14.99 27 17.44V22.23H20.8953ZM30.6302 19.5402L33.5502 22.4502C33.7002 22.6002 33.7802 22.7902 33.7802 23.0002C33.7802 23.2002 33.7002 23.4002 33.5502 23.5402L30.6302 26.4502C30.4802 26.6002 30.2802 26.6802 30.0902 26.6802C29.8902 26.6802 29.6902 26.6002 29.5402 26.4502C29.2402 26.1502 29.2402 25.6602 29.5402 25.3602L31.1402 23.7702H27.0002V22.2302H31.1402L29.5402 20.6402C29.2402 20.3402 29.2402 19.8502 29.5402 19.5502C29.8402 19.2402 30.3302 19.2402 30.6302 19.5402Z" fill="#F5F5FC"/>
</svg>
