<svg width="45" height="45" viewBox="0 0 45 45" fill="none" xmlns="http://www.w3.org/2000/svg">
<rect width="45" height="45" rx="10" fill="#FE7A6B"/>
<path fill-rule="evenodd" clip-rule="evenodd" d="M29.7071 19.7963C29.7071 21.0523 30.039 21.7925 30.7695 22.6456C31.3231 23.2741 31.5 24.0808 31.5 24.956C31.5 25.8302 31.2128 26.6601 30.6373 27.3339C29.884 28.1417 28.8215 28.6573 27.7372 28.747C26.1659 28.8809 24.5937 28.9937 23.0005 28.9937C21.4063 28.9937 19.835 28.9263 18.2638 28.747C17.1785 28.6573 16.116 28.1417 15.3637 27.3339C14.7882 26.6601 14.5 25.8302 14.5 24.956C14.5 24.0808 14.6779 23.2741 15.2305 22.6456C15.9838 21.7925 16.2939 21.0523 16.2939 19.7963V19.3703C16.2939 17.6883 16.7133 16.5885 17.577 15.5119C18.8611 13.9417 20.9194 13 22.9558 13H23.0452C25.1254 13 27.2502 13.987 28.5125 15.6247C29.3314 16.6792 29.7071 17.7327 29.7071 19.3703V19.7963ZM20.0737 31.0608C20.0737 30.5573 20.5358 30.3266 20.9632 30.2279C21.4631 30.1222 24.5093 30.1222 25.0092 30.2279C25.4366 30.3266 25.8987 30.5573 25.8987 31.0608C25.8738 31.5402 25.5926 31.9653 25.204 32.2352C24.7001 32.628 24.1088 32.8767 23.4906 32.9664C23.1487 33.0107 22.8128 33.0117 22.4828 32.9664C21.8636 32.8767 21.2723 32.628 20.7694 32.2342C20.3798 31.9653 20.0985 31.5402 20.0737 31.0608Z" fill="#F5F5FC"/>
</svg>
