<svg width="45" height="45" viewBox="0 0 45 45" fill="none" xmlns="http://www.w3.org/2000/svg">
<rect width="45" height="45" rx="10" fill="#FE7A6B"/>
<path fill-rule="evenodd" clip-rule="evenodd" d="M28.0105 25.6011C28.4245 25.6011 28.7605 25.2651 28.7605 24.8511V22.9991C28.7605 22.5851 28.4245 22.2491 28.0105 22.2491H22.3185C21.9945 21.1821 21.0125 20.3981 19.8405 20.3981C18.4065 20.3981 17.2395 21.5651 17.2395 22.9991C17.2395 24.4341 18.4065 25.6011 19.8405 25.6011C21.0125 25.6011 21.9945 24.8171 22.3185 23.7491H24.4305V24.8511C24.4305 25.2651 24.7665 25.6011 25.1805 25.6011C25.5945 25.6011 25.9305 25.2651 25.9305 24.8511V23.7491H27.2605V24.8511C27.2605 25.2651 27.5965 25.6011 28.0105 25.6011ZM18.6655 12.9991H27.3345C30.7225 12.9991 32.9995 15.3771 32.9995 18.9161V27.0831C32.9995 30.6221 30.7225 32.9991 27.3335 32.9991H18.6655C15.2765 32.9991 12.9995 30.6221 12.9995 27.0831V18.9161C12.9995 15.3771 15.2765 12.9991 18.6655 12.9991ZM18.7386 23C18.7386 22.392 19.2336 21.898 19.8406 21.898C20.4476 21.898 20.9426 22.392 20.9426 23C20.9426 23.607 20.4476 24.101 19.8406 24.101C19.2336 24.101 18.7386 23.607 18.7386 23Z" fill="#F5F5FC"/>
</svg>
