<svg width="81" height="81" viewBox="0 0 81 81" fill="none" xmlns="http://www.w3.org/2000/svg">
<g filter="url(#filter0_d_342_179)">
<circle cx="40.5" cy="40.5" r="32.5" fill="white"/>
<circle cx="40.5" cy="40.5" r="34.5" stroke="#142625" stroke-width="4"/>
</g>
<path fill-rule="evenodd" clip-rule="evenodd" d="M35.8323 30.5C36.3223 30.5 36.7202 30.8901 36.7202 31.3718C36.7202 31.8522 36.3235 32.2424 35.8323 32.2424L33.9318 32.2435C32.3545 32.2458 31.0712 33.5054 31.0712 35.0533V37.2223C31.0712 37.7028 30.6722 38.0941 30.1822 38.0941C29.6922 38.0941 29.2943 37.7028 29.2943 37.2223V35.0533C29.2943 32.5455 31.3745 30.5034 33.9307 30.5011L35.8312 30.5H35.8323ZM44.2007 30.5003H46.0592C48.6224 30.5003 50.7061 32.5436 50.7061 35.057V37.2227C50.7061 37.7032 50.3094 38.0944 49.8182 38.0944C49.3282 38.0944 48.9304 37.7032 48.9304 37.2227V35.057C48.9304 33.5046 47.6424 32.2416 46.0592 32.2416H44.2007C43.7107 32.2416 43.3129 31.8526 43.3129 31.3721C43.3129 30.8905 43.7107 30.5003 44.2007 30.5003ZM43.2229 34.8664H36.7783C35.3036 34.8813 34.1183 36.0631 34.1311 37.5103V38.9632C34.1346 39.1325 34.2734 39.271 34.4461 39.2767H45.5528C45.7266 39.2721 45.8654 39.1337 45.8713 38.9632V37.5103C45.8724 36.8113 45.5971 36.1397 45.1001 35.6398C44.6066 35.1444 43.9288 34.8664 43.2229 34.8664ZM28.0557 41.0481H51.9455C52.4355 41.0481 52.8334 41.4382 52.8334 41.9199C52.8334 42.4004 52.4355 42.7893 51.9455 42.7893H50.7065V46.9422C50.7065 49.4568 48.6217 51.5 46.0597 51.5H44.2012C43.71 51.5 43.3122 51.1099 43.3122 50.6282C43.3122 50.1478 43.71 49.7576 44.2012 49.7576H46.0597C47.6429 49.7576 48.9309 48.4958 48.9309 46.9422V42.7893H45.8707V43.9459C45.8824 45.3931 44.6982 46.5761 43.2224 46.5898H36.7777C35.303 46.5761 34.1189 45.3931 34.1305 43.9459V42.7893H31.0704V46.9467C31.0704 48.4946 32.3549 49.7542 33.9334 49.7565L35.8327 49.7576C36.3227 49.7576 36.7205 50.1478 36.7205 50.6282C36.7194 51.1099 36.3227 51.5 35.8315 51.5L33.931 51.4989C31.3749 51.4966 29.2935 49.4545 29.2935 46.9467V42.7893H28.0557C27.5657 42.7893 27.1667 42.4004 27.1667 41.9199C27.1667 41.4382 27.5657 41.0481 28.0557 41.0481Z" fill="#142625"/>
<defs>
<filter id="filter0_d_342_179" x="0" y="0" width="81" height="81" filterUnits="userSpaceOnUse" color-interpolation-filters="sRGB">
<feFlood flood-opacity="0" result="BackgroundImageFix"/>
<feColorMatrix in="SourceAlpha" type="matrix" values="0 0 0 0 0 0 0 0 0 0 0 0 0 0 0 0 0 0 127 0" result="hardAlpha"/>
<feOffset/>
<feGaussianBlur stdDeviation="2"/>
<feComposite in2="hardAlpha" operator="out"/>
<feColorMatrix type="matrix" values="0 0 0 0 0 0 0 0 0 0 0 0 0 0 0 0 0 0 0.25 0"/>
<feBlend mode="normal" in2="BackgroundImageFix" result="effect1_dropShadow_342_179"/>
<feBlend mode="normal" in="SourceGraphic" in2="effect1_dropShadow_342_179" result="shape"/>
</filter>
</defs>
</svg>
